<svg xmlns:xlink="http://www.w3.org/1999/xlink"  width="20" height="20" viewBox="0 0 20 20" fill="none" xmlns="http://www.w3.org/2000/svg" class="sm:max-md:w-[10px] sm:max-md:h-[10px] md:max-lg:w-4 md:max-lg:h-4 lg:w-[20px] lg:h-[20px]" role="presentation" aria-label="Navigation Arrow"><path d="M7.54541 16.5455C7.43774 16.5461 7.33099 16.5255 7.23131 16.4848C7.13162 16.4441 7.04096 16.3841 6.96451 16.3082C6.88782 16.2322 6.82695 16.1417 6.78541 16.042C6.74387 15.9423 6.72249 15.8353 6.72249 15.7273C6.72249 15.6193 6.74387 15.5124 6.78541 15.4127C6.82695 15.313 6.88782 15.2225 6.96451 15.1464L12.1191 10.0001L6.96451 4.8537C6.81044 4.69964 6.72388 4.49068 6.72388 4.27279C6.72388 4.05491 6.81044 3.84595 6.96451 3.69188C7.11857 3.53782 7.32753 3.45126 7.54541 3.45126C7.7633 3.45126 7.97226 3.53782 8.12632 3.69188L13.8536 9.41916C13.9303 9.49522 13.9912 9.58571 14.0327 9.68541C14.0742 9.78511 14.0956 9.89206 14.0956 10.0001C14.0956 10.1081 14.0742 10.215 14.0327 10.3147C13.9912 10.4144 13.9303 10.5049 13.8536 10.581L8.12632 16.3082C8.04987 16.3841 7.9592 16.4441 7.85952 16.4848C7.75983 16.5255 7.65309 16.5461 7.54541 16.5455Z" fill="white"></path></svg>